<?xml version="1.0" encoding="UTF-8" standalone="no"?>
<svg
   xmlns:dc="http://purl.org/dc/elements/1.1/"
   xmlns:cc="http://creativecommons.org/ns#"
   xmlns:rdf="http://www.w3.org/1999/02/22-rdf-syntax-ns#"
   xmlns:svg="http://www.w3.org/2000/svg"
   xmlns="http://www.w3.org/2000/svg"
   xmlns:sodipodi="http://sodipodi.sourceforge.net/DTD/sodipodi-0.dtd"
   xmlns:inkscape="http://www.inkscape.org/namespaces/inkscape"
   viewBox="0 0 12 12"
   version="1.1"
   id="svg6"
   sodipodi:docname="zoom.svg"
   inkscape:version="1.0.2 (e86c870879, 2021-01-15)">
  <metadata
     id="metadata12">
    <rdf:RDF>
      <cc:Work
         rdf:about="">
        <dc:format>image/svg+xml</dc:format>
        <dc:type
           rdf:resource="http://purl.org/dc/dcmitype/StillImage" />
      </cc:Work>
    </rdf:RDF>
  </metadata>
  <defs
     id="defs10" />
  <sodipodi:namedview
     pagecolor="#ffffff"
     bordercolor="#666666"
     borderopacity="1"
     objecttolerance="10"
     gridtolerance="10"
     guidetolerance="10"
     inkscape:pageopacity="0"
     inkscape:pageshadow="2"
     inkscape:window-width="1920"
     inkscape:window-height="1016"
     id="namedview8"
     showgrid="false"
     inkscape:zoom="83.780898"
     inkscape:cx="10.333951"
     inkscape:cy="10.204029"
     inkscape:window-x="0"
     inkscape:window-y="27"
     inkscape:window-maximized="1"
     inkscape:current-layer="g4" />
  <g
     transform="matrix(1.0601 0 0 1.0601 -4.6007 -4.6007)"
     id="g4">
    <path
       d="m 15.51,15.51 c -0.190468,0.20002 -0.509532,0.20002 -0.7,0 l -2.873506,-2.931062 c 0.256246,-0.216241 0.493758,-0.453753 0.71,-0.71 L 15.51,14.81 c 0.20002,0.190468 0.20002,0.509532 0,0.7 z"
       id="path18"
       sodipodi:nodetypes="cccccc" />
    <path
       id="path2"
       style="stroke-width:1.0601"
       d="M 5.1542969 0 A 5.2209925 5.2209925 0 0 0 5.2167969 10.441406 A 5.1545242 5.1545242 0 0 0 8.5136719 9.265625 A 5.0524366 5.0524366 0 0 0 9.265625 8.5136719 A 5.1545242 5.1545242 0 0 0 10.441406 5.2167969 A 5.2209925 5.2209925 0 0 0 5.1542969 0 z M 5.203125 0.87890625 A 4.341471 4.341471 0 0 1 9.5625 5.2167969 A 4.2861998 4.2861998 0 0 1 8.5839844 7.9589844 A 4.2013097 4.2013097 0 0 1 7.9589844 8.5839844 A 4.2861998 4.2861998 0 0 1 5.2167969 9.5625 A 4.341471 4.341471 0 0 1 5.203125 0.87890625 z "
       transform="matrix(0.94330724,0,0,0.94330724,4.3398736,4.3398736)" />
  </g>
</svg>
