<?xml version="1.0" standalone="no"?>
<!DOCTYPE svg PUBLIC "-//W3C//DTD SVG 20010904//EN"
 "http://www.w3.org/TR/2001/REC-SVG-20010904/DTD/svg10.dtd">
<svg version="1.0" xmlns="http://www.w3.org/2000/svg"
 width="700.000000pt" height="700.000000pt" viewBox="0 0 700.000000 700.000000"
 preserveAspectRatio="xMidYMid meet">
<metadata>
Created by potrace 1.14, written by Peter Selinger 2001-2017
</metadata>
<g transform="translate(0.000000,700.000000) scale(0.100000,-0.100000)"
fill="#000000" stroke="none">
<path d="M3420 6154 c-297 -58 -522 -351 -555 -724 -15 -166 35 -388 120 -532
83 -141 210 -253 340 -299 74 -27 216 -36 294 -19 284 61 501 360 527 725 26
365 -179 725 -469 825 -61 21 -204 34 -257 24z"/>
<path d="M2629 5252 c-790 -393 -1220 -1269 -1048 -2134 104 -524 432 -997
889 -1282 l75 -47 3 28 c2 16 12 100 22 188 l19 160 -26 20 c-348 267 -555
584 -644 987 -26 119 -37 404 -20 533 67 508 376 963 820 1206 53 29 97 53 99
54 1 1 -8 36 -22 77 -20 63 -38 150 -48 245 -3 21 -8 20 -119 -35z"/>
<path d="M4256 5231 c-5 -57 -38 -192 -61 -252 -5 -13 16 -28 88 -68 435 -241
737 -676 812 -1171 19 -122 19 -358 0 -480 -40 -265 -144 -514 -303 -726 -78
-104 -222 -250 -311 -314 l-62 -45 6 -75 c3 -41 8 -128 12 -192 3 -65 9 -118
12 -118 4 0 40 21 81 46 307 191 569 480 725 799 257 527 268 1129 29 1668
-145 328 -399 626 -710 833 -76 51 -286 164 -304 164 -4 0 -10 -31 -14 -69z"/>
<path d="M3464 4181 c-46 -12 -92 -43 -150 -103 -293 -302 -551 -1214 -649
-2288 -44 -483 -37 -586 44 -704 65 -94 187 -173 326 -211 95 -26 311 -31 436
-11 363 60 666 267 789 540 67 146 79 255 60 521 -79 1082 -298 1872 -598
2158 -87 82 -179 117 -258 98z"/>
</g>
</svg>
