<?xml version="1.0" encoding="UTF-8" standalone="no"?>
<svg
   xmlns:dc="http://purl.org/dc/elements/1.1/"
   xmlns:cc="http://creativecommons.org/ns#"
   xmlns:rdf="http://www.w3.org/1999/02/22-rdf-syntax-ns#"
   xmlns:svg="http://www.w3.org/2000/svg"
   xmlns="http://www.w3.org/2000/svg"
   xmlns:sodipodi="http://sodipodi.sourceforge.net/DTD/sodipodi-0.dtd"
   xmlns:inkscape="http://www.inkscape.org/namespaces/inkscape"
   viewBox="0 0 20 20"
   version="1.1"
   id="svg6"
   sodipodi:docname="zoom-tablet.svg"
   width="20"
   height="20"
   inkscape:version="1.0.2 (e86c870879, 2021-01-15)">
  <metadata
     id="metadata10">
    <rdf:RDF>
      <cc:Work
         rdf:about="">
        <dc:format>image/svg+xml</dc:format>
        <dc:type
           rdf:resource="http://purl.org/dc/dcmitype/StillImage" />
        <dc:title></dc:title>
      </cc:Work>
    </rdf:RDF>
  </metadata>
  <sodipodi:namedview
     pagecolor="#ffffff"
     bordercolor="#666666"
     borderopacity="1"
     objecttolerance="10"
     gridtolerance="10"
     guidetolerance="10"
     inkscape:pageopacity="0"
     inkscape:pageshadow="2"
     inkscape:window-width="2560"
     inkscape:window-height="1376"
     id="namedview8"
     showgrid="false"
     inkscape:zoom="30.625"
     inkscape:cx="15.436318"
     inkscape:cy="7.0056942"
     inkscape:window-x="1440"
     inkscape:window-y="505"
     inkscape:window-maximized="1"
     inkscape:current-layer="g4" />
  <defs
     id="defs10" />
  <g
     transform="matrix(1.0601,0,0,1.0601,-4.6007,-4.6007)"
     id="g4"
     style="stroke:#ffffff;stroke-width:0.43392133;stroke-miterlimit:4;stroke-dasharray:none">
    <ellipse
       style="fill:#ffffff;stroke:none;stroke-width:4.39145;stroke-miterlimit:4;stroke-dasharray:none"
       id="path838"
       cx="13.057706"
       cy="12.789604"
       rx="5.5300984"
       ry="5.7584686" />
    <path
       id="path836"
       style="fill:#0000ff;stroke:#ffffff;stroke-width:3.90693;stroke-miterlimit:4;stroke-dasharray:none"
       d="m 12.668001,6.4031865 a 6.394773,6.394773 0 0 0 0.07655,12.7888375 6.3133614,6.3133614 0 0 0 4.038077,-1.44012 6.1883225,6.1883225 0 0 0 0.04066,-0.03349 l 3.126638,3.188838 c 0.247311,0.259711 0.661736,0.259711 0.909046,0 0.259712,-0.247309 0.259712,-0.661737 0,-0.909047 l -3.124246,-3.207974 a 6.3133614,6.3133614 0 0 0 1.40902,-3.997414 6.394773,6.394773 0 0 0 -6.475753,-6.3896338 z m 0.05981,1.0765014 a 5.317518,5.317518 0 0 1 5.339447,5.3131331 5.2498208,5.2498208 0 0 1 -1.198505,3.358684 5.1458458,5.1458458 0 0 1 -0.765512,0.765512 5.2498208,5.2498208 0 0 1 -3.358684,1.198505 5.3179238,5.3179238 0 0 1 -0.01675,-10.6358341 z" />
    <path
       id="path18"
       style="fill:#0000ff;stroke:#ffffff;stroke-width:0.563416;stroke-miterlimit:4;stroke-dasharray:none"
       d="m 12.668001,6.4031865 a 6.394773,6.394773 0 0 0 0.07655,12.7888375 6.3133614,6.3133614 0 0 0 4.038077,-1.44012 6.1883225,6.1883225 0 0 0 0.04066,-0.03349 l 3.126638,3.188838 c 0.247311,0.259711 0.661736,0.259711 0.909046,0 0.259712,-0.247309 0.259712,-0.661737 0,-0.909047 l -3.124246,-3.207974 a 6.3133614,6.3133614 0 0 0 1.40902,-3.997414 6.394773,6.394773 0 0 0 -6.475753,-6.3896338 z m 0.05981,1.0765014 a 5.317518,5.317518 0 0 1 5.339447,5.3131331 5.2498208,5.2498208 0 0 1 -1.198505,3.358684 5.1458458,5.1458458 0 0 1 -0.765512,0.765512 5.2498208,5.2498208 0 0 1 -3.358684,1.198505 5.3179238,5.3179238 0 0 1 -0.01675,-10.6358341 z" />
  </g>
</svg>
