<svg xmlns="http://www.w3.org/2000/svg" viewBox="0 0 12 12">
<g transform="matrix(1.0601 0 0 1.0601 -4.6007 -4.6007)">
<path d="m14.19 9.26a4.925 4.925 0 1 0-4.93 4.93 4.8623 4.8623 0 0 0 3.11-1.11 4.766 4.766 0 0 0 0.71-0.71 4.8623 4.8623 0 0 0 1.11-3.11zm-3.24 0.5h-1.19v1.19a0.4951 0.4951 0 0 1-0.5 0.5 0.5015 0.5015 0 0 1-0.5-0.5v-1.19h-1.18a0.4951 0.4951 0 0 1-0.5-0.5 0.5015 0.5015 0 0 1 0.5-0.5h1.18v-1.18a0.5015 0.5015 0 0 1 0.5-0.5 0.4951 0.4951 0 0 1 0.5 0.5v1.18h1.19a0.5015 0.5015 0 0 1 0.5 0.5 0.4951 0.4951 0 0 1-0.5 0.5zm4.56 5.75a0.4833 0.4833 0 0 1-0.7 0l-1.73-1.72a5.9508 5.9508 0 0 0 0.71-0.71l1.72 1.73a0.4833 0.4833 0 0 1 0 0.7z"/>
</g>
</svg>
